<?xml version="1.0" encoding="iso-8859-1"?>
<!-- Generator: Adobe Illustrator 18.0.0, SVG Export Plug-In . SVG Version: 6.00 Build 0)  -->
<!DOCTYPE svg PUBLIC "-//W3C//DTD SVG 1.1//EN" "http://www.w3.org/Graphics/SVG/1.1/DTD/svg11.dtd">
<svg version="1.1" id="Capa_1" xmlns="http://www.w3.org/2000/svg" xmlns:xlink="http://www.w3.org/1999/xlink" x="0px" y="0px"
	 viewBox="0 0 240.167 240.167" style="enable-background:new 0 0 240.167 240.167;" xml:space="preserve">
<path d="M208.125,112.167c7.981,0,14.875-2.011,21.875-5.547v83.547c0,0.453,0.136,0.9,0.1,1.345l-70.15-65.444l22.485-21.673
	C189.822,109.298,198.623,112.167,208.125,112.167z M171.524,94.197c-6.283-7.999-10.045-18.07-10.045-28.988
	c0-8.116,2.098-15.542,5.746-22.542H16.5c-3.99,0-7.622,1.493-10.432,3.933l109.183,101.739L171.524,94.197z M0,61.76v128.407
	c0,1.449,0.372,2.852,0.724,4.2l69.659-67.1L0,61.76z M120.533,164.071c-1.451,1.396-3.325,2.096-5.2,2.096
	c-1.836,0-3.672-0.67-5.113-2.013l-28.596-26.647l-70.774,68.093c1.759,0.677,3.657,1.066,5.651,1.066h197.667
	c2.922,0,5.648-0.808,8.005-2.194l-72.965-67.99L120.533,164.071z M240.167,65.334c0,17.553-14.28,31.833-31.834,31.833
	c-17.553,0-31.833-14.28-31.833-31.833c0-17.554,14.28-31.834,31.833-31.834C225.887,33.5,240.167,47.78,240.167,65.334z
	 M229.833,65.167c0-4.143-3.357-7.5-7.5-7.5H215v-7c0-4.143-3.357-7.5-7.5-7.5s-7.5,3.357-7.5,7.5v7h-6.667
	c-4.143,0-7.5,3.357-7.5,7.5s3.357,7.5,7.5,7.5H200v7c0,4.143,3.357,7.5,7.5,7.5s7.5-3.357,7.5-7.5v-7h7.333
	C226.476,72.667,229.833,69.31,229.833,65.167z"/>
<g>
</g>
<g>
</g>
<g>
</g>
<g>
</g>
<g>
</g>
<g>
</g>
<g>
</g>
<g>
</g>
<g>
</g>
<g>
</g>
<g>
</g>
<g>
</g>
<g>
</g>
<g>
</g>
<g>
</g>
</svg>
